<svg xmlns="http://www.w3.org/2000/svg" width="876" height="275" fill="none">
  <path stroke="#404040" stroke-width=".8" d="M688.628 197.045c-26.987 0-52.112 43.693-42.124 65.866 9.988 22.173 42.741-14.098-11.655-14.098-14.874.248-27.702 1.981-39.149 4.33m-157.509-32.622c72.835 69.735 96.524 47.073 149.681 34.364m-297.073 2.161c30.703 0 41.147-25.436 45.963-43.045m-103.355 43.045c-54.01-7.117 0-71.813-33.913-80.871"/>
  <path stroke="#404040" stroke-dasharray="1.06 1.06" stroke-linecap="round" stroke-miterlimit="10" stroke-width=".5" d="M564.286 124.067c-.111-2.832-.124-2.748-.259-6.207-.21-7.671-.284-12.074-.284-16.918m.816 29.78c.705 17.966.812 21.397.812 21.397m-1.106-69.486s-.494 1.109-.522 12.985m-3.007 34.605c1.038 19.964 1.202 22.071 1.202 22.071m-1.366-27.839c-.081-2.427-.174-3.525-.256-5.939-.291-8.428-.405-12.269-.421-17.463m.421-18.743s-.428 2.372-.421 13.308m-83.192 34.494c.546 19.797.546 22.182.546 22.182m0-70.54s.007 2.817 0 13.753m-.546 5.435c-.024 7.904.248 15.824 0 23.18m-1.999 67.133s90.159-.652 97.725-.652c7.566 0 19.545.978 23.012-1.957 2.838-2.284 4.099-9.46 5.99-18.593 1.892-9.133 6.935-43.056 6.935-43.056s0-11.416 12.925-10.438c10.403.653 10.718 8.481 11.034 9.46.315.978 1.891 17.613-1.261 34.575-3.153 16.961-7.881 30.009-13.24 40.773-6.62 13.699-15.762 19.245-15.762 19.245m-124.833.652v-32.945m-2.525-2.609s44.449-.652 61.472-.652c17.023 0 59.265-.327 59.265-.327m-120.737-23.158c71.245-.653 71.245-.653 90.474-.653h33.731"/>
  <path fill="#404040" d="m589.498 268.271-.99.14.045.322.226.233.719-.695Zm5.99 0 .9.435.1-.206v-.229h-1Zm-17.769-18.63h1v-.033l-1 .033Zm-5.043 0-.988.154.022.147.065.134.901-.435Zm-97.467-29.377h-1v2h1v-2Zm119.332 1 .086-.996a.812.812 0 0 0-.086-.004v1Zm11.936-2.283.554.832a.371.371 0 0 0 .032-.023l-.586-.809Zm19.229-28.378-.938-.346a.654.654 0 0 0-.019.058l.957.288Zm9.142-40.447-.992-.121a.596.596 0 0 0-.004.042l.996.079Zm-3.152-32.944.751-.66a.146.146 0 0 0-.016-.019l-.735.679Zm-20.491-6.198-.942.336c.151.422.565.693 1.013.662l-.071-.998Zm-8.511-12.721-.736.677.017.018.719-.695Zm-79.756-17.614.009 1h.006l-.015-1Zm-47.77-.545-1 .01.019 1.999 1-.01-.019-2Zm.039 107.512-1 .005.011 2 1-.006-.011-1.999Zm113.935.347.005 1h.028l.027-.002-.06-.998Zm9.142-29.356-.865.501.025.044.03.042.81-.587Zm-3.783-2.284-.227.974.003.001.224-.975Zm-12.61-2.935.227-.974-.003-.001-.224.975Zm-106.492-1.326h-1v2h1v-2Zm.305 6.197-1 .01.018 2 1-.01-.018-2Zm89.478.022.017 1h.002l-.019-1Zm32.743 1.325 1 .042.082-1.999-.999-.041-.083 1.998Zm-16.037 61.767 6.62 47.008 1.98-.279-6.62-47.008-1.98.279Zm7.61 46.868c-.719.695-.718.696-.718.697l.002.001.003.003.006.006.012.012a1.274 1.274 0 0 0 .1.088c.055.044.122.093.206.145.166.103.392.216.694.32.601.207 1.503.381 2.848.381v-2c-1.178 0-1.852-.153-2.196-.272a1.449 1.449 0 0 1-.291-.128c-.016-.01-.017-.012-.007-.004a.61.61 0 0 1 .023.02l.017.016.01.01.005.005.003.003.001.001c.001.001.001.001-.718.696Zm3.153 1.653c1.335 0 2.187-.171 2.746-.403.284-.117.501-.254.666-.4a1.49 1.49 0 0 0 .274-.32l.028-.049.012-.023.006-.011.002-.006.002-.003c0-.001.001-.003-.899-.438-.901-.435-.9-.436-.899-.438l.001-.002.003-.006.005-.01.011-.021a.328.328 0 0 1 .022-.037.5.5 0 0 1 .105-.132c.026-.023.006.003-.104.048-.229.095-.795.251-1.981.251v2Zm3.837-1.653v-47.007h-2v47.007h2Zm-20.714-46.974.946 28.377 1.999-.066-.946-28.377-1.999.066Zm1.945 28.344c-1 0-1-.002-.999-.004v-.026l.001-.03.006-.06a.771.771 0 0 1 .112-.32c.074-.114.142-.141.106-.122-.102.053-.54.215-1.747.215v2c1.314 0 2.137-.165 2.666-.438.279-.145.504-.334.657-.571a1.266 1.266 0 0 0 .196-.58l.002-.033v-.027c0-.002 0-.004-1-.004Zm-2.521-.347c-1.015 0-1.49-.152-1.671-.235-.087-.04-.101-.062-.077-.039a.46.46 0 0 1 .089.117l.018.032.01.018.004.01.003.004.001.003c0 .001.001.002-.899.437-.901.435-.9.436-.9.438l.002.002.002.005.005.01.011.021.025.043a1.473 1.473 0 0 0 .248.306c.152.145.355.287.622.41.528.243 1.314.418 2.507.418v-2Zm-1.534.194-4.414-28.378-1.976.308 4.414 28.377 1.976-.307Zm-98.455-27.224h119.332v-2H475.209v2Zm119.332-1-.086.996h.003l.005.001.02.001.071.006.262.017a31.147 31.147 0 0 0 4.121-.065c2.481-.208 5.672-.796 8.094-2.407l-1.108-1.665c-1.992 1.325-4.769 1.879-7.153 2.079a29.126 29.126 0 0 1-3.841.061 13.702 13.702 0 0 1-.23-.015l-.057-.004-.013-.001h-.002l-.086.996Zm12.522-1.474c3.233-2.341 13.836-9.679 19.601-28.9l-1.915-.575c-5.584 18.617-15.786 25.63-18.859 27.856l1.173 1.619Zm18.643-29.187.939.345v-.001l.002-.003.004-.013.017-.046.065-.18a146.766 146.766 0 0 0 1.13-3.312 197.403 197.403 0 0 0 2.788-9.288c2.096-7.654 4.399-17.834 5.194-27.87l-1.993-.158c-.782 9.861-3.05 19.905-5.13 27.5a194.911 194.911 0 0 1-2.759 9.192 145.172 145.172 0 0 1-1.112 3.26l-.063.172a1.386 1.386 0 0 0-.015.043l-.004.01-.001.003.938.346Zm9.142-40.447.993.121v-.001l.001-.004.002-.015.006-.058.026-.222a122.19 122.19 0 0 0 .363-3.882c.199-2.545.398-6.017.398-9.72 0-3.698-.198-7.655-.803-11.159-.598-3.464-1.62-6.653-3.387-8.664l-1.502 1.32c1.385 1.576 2.334 4.299 2.918 7.685.577 3.346.774 7.176.774 10.818 0 3.636-.196 7.054-.391 9.565a123.997 123.997 0 0 1-.357 3.812l-.025.213a1.444 1.444 0 0 0-.006.053l-.002.013v.004l.992.121Zm-2.417-33.623c-3.545-3.842-8.949-5.437-13.313-6.1a42.17 42.17 0 0 0-5.627-.46 35.952 35.952 0 0 0-2.181.033l-.126.007a.79.79 0 0 0-.035.003h-.012l-.001.001.069.997.07.998h.001l.005-.001.026-.001.108-.007c.097-.005.243-.011.432-.017.378-.013.93-.023 1.615-.013 1.37.02 3.264.12 5.356.437 4.227.642 9.068 2.146 12.143 5.48l1.47-1.357Zm-21.226-5.519.942-.336v-.001l-.001-.002a.017.017 0 0 0-.002-.005l-.006-.018-.023-.062-.088-.225a21.303 21.303 0 0 0-.352-.829 34.777 34.777 0 0 0-1.491-2.929c-1.373-2.424-3.55-5.676-6.771-9.009l-1.438 1.39c3.083 3.19 5.163 6.299 6.469 8.605a32.837 32.837 0 0 1 1.405 2.759 18.367 18.367 0 0 1 .394.943l.017.045a.042.042 0 0 1 .003.009l.001.001c0 .001 0 0 0 0h-.001l.942-.336Zm-7.775-13.398c-3.145-3.417-6.241-6.88-11.488-9.742-5.24-2.858-12.555-5.083-24.141-6.233l-.198 1.99c11.427 1.134 18.455 3.312 23.382 5.999 4.919 2.683 7.813 5.907 10.973 9.34l1.472-1.354ZM567.801 81.64c-11.539-1.145-22.757-1.635-31.086-1.84a451.847 451.847 0 0 0-10.017-.137 310.652 310.652 0 0 0-3.521.012l-.189.002h-.048l-.013.001h-.004l.015 1 .015 1h.061l.185-.003a306.624 306.624 0 0 1 3.495-.012c2.392.005 5.823.035 9.972.137 8.299.204 19.464.692 30.937 1.83l.198-1.99Zm-44.873-1.962-47.76.455.019 2 47.76-.455-.019-2Zm-47.71 109.966 113.929-.652-.011-2-113.929.653.011 1.999Zm113.924-1.652.061.998h.009l.017-.002.057-.004a10.676 10.676 0 0 0 .889-.119c.57-.099 1.351-.276 2.191-.588 1.657-.615 3.699-1.818 4.639-4.152l-1.856-.747c-.636 1.581-2.062 2.498-3.479 3.024a10.521 10.521 0 0 1-2.405.575l-.147.014a.384.384 0 0 0-.033.003h-.006.001l.062.998Zm7.863-3.867c1.632-4.055 2.589-9.72 2.907-14.991l-1.996-.121c-.312 5.167-1.247 10.592-2.767 14.365l1.856.747Zm2.907-14.991c.158-2.616.24-4.942.159-6.791-.041-.924-.123-1.756-.265-2.458-.139-.685-.352-1.339-.713-1.836l-1.619 1.174c.112.154.254.479.371 1.059.114.561.189 1.279.228 2.149.076 1.739 0 3.979-.157 6.582l1.996.121Zm-.763-11c-.639-1.102-1.837-1.78-2.706-2.166a10.99 10.99 0 0 0-1.563-.551l-.108-.028-.032-.008a.02.02 0 0 1-.009-.002l-.004-.001h-.002l-.224.974-.225.975h-.001.002l.017.004.075.019a8.969 8.969 0 0 1 1.263.447c.786.348 1.48.811 1.787 1.34l1.73-1.003Zm-4.422-2.756-12.609-2.935-.454 1.948 12.61 2.935.453-1.948Zm-12.836-1.961.224-.975h-.001l-.003-.001a.304.304 0 0 1-.037-.008l-.105-.023a29.877 29.877 0 0 0-1.789-.309 32.95 32.95 0 0 0-4.594-.337v2a30.922 30.922 0 0 1 5.62.533c.153.029.271.054.35.07l.087.019.02.004.004.001h.001-.001l.224-.974Zm-6.305-1.653c-1.741 0-8.529.082-15.616.164-7.096.081-14.497.163-17.484.163v2c3.002 0 10.418-.082 17.507-.164 7.099-.081 13.867-.163 15.593-.163v-2Zm-33.1.327H475.4l-.001 1 .001 1h67.086v-2Zm-66.773 7.197.01 1h.05l.152-.001.594-.006 2.272-.021 8.251-.079c6.91-.066 16.321-.158 26.323-.26 20.001-.203 42.372-.448 51.834-.611l-.034-2c-9.453.163-31.816.408-51.821.612-10.001.101-19.411.193-26.321.259l-8.251.079-2.272.021-.594.006-.151.001h-.051l.009 1Zm89.488.022c8.494-.163 16.676-.082 22.737.04a629.166 629.166 0 0 1 9.281.258l.527.02.135.005.033.002h.011l.042-.999.041-.999h-.003l-.009-.001-.035-.001-.136-.005a200.125 200.125 0 0 0-2.555-.09 611.838 611.838 0 0 0-7.292-.189c-6.076-.123-14.287-.204-22.815-.041l.038 2Z"/>
  <path fill="#404040" d="M632.597 120.654a.4.4 0 0 0 .714-.361l-.714.361Zm-27.384 9.279.393.075.002-.012-.395-.063Zm-7.646 45.277a.4.4 0 0 0 .791.124l-.791-.124Zm12.632-63.89a.4.4 0 1 0 .336-.726l-.336.726Zm-24.845 6.87-.311-.251-.003.004.314.247Zm-8.596 34.575a.4.4 0 1 0 .8 0h-.8Zm56.196-32.292.357-.181v-.001l-.001-.001-.003-.006-.01-.018-.035-.065a9.556 9.556 0 0 0-.695-1.032 12.685 12.685 0 0 0-2.406-2.359c-2.24-1.685-5.802-3.266-11.102-2.933l.05.798c5.102-.32 8.476 1.198 10.571 2.774 1.05.791 1.784 1.6 2.253 2.208a8.842 8.842 0 0 1 .631.935l.027.049.006.011.001.002s0 .001 0 0l.356-.181Zm-13.895-6.596c-5.224.327-8.369 1.313-10.412 3.815-1.013 1.24-1.731 2.825-2.315 4.82-.584 1.993-1.041 4.42-1.514 7.357l.79.127c.473-2.934.923-5.318 1.491-7.26.569-1.94 1.249-3.413 2.167-4.538 1.819-2.227 4.663-3.198 9.843-3.523l-.05-.798Zm-14.239 15.98c-.317 1.639-2.131 12.985-3.864 23.906a15149.133 15149.133 0 0 0-3.103 19.632l-.211 1.341-.056.353-.014.09-.003.023-.001.006-.001.001.396.063.395.062v-.002l.001-.006a.237.237 0 0 0 .003-.022l.015-.091.055-.352.211-1.341.759-4.811c.63-3.996 1.478-9.358 2.344-14.821 1.735-10.934 3.546-22.257 3.86-23.88l-.786-.151Zm5.547-18.9.167-.363h-.001l-.002-.002-.009-.004a.364.364 0 0 1-.034-.015l-.126-.054c-.11-.046-.271-.111-.478-.188a19.306 19.306 0 0 0-1.771-.557 22.46 22.46 0 0 0-6.123-.738c-4.977.098-11.348 1.95-16.947 8.903l.623.502c5.434-6.747 11.57-8.511 16.34-8.605a21.612 21.612 0 0 1 5.902.712 18.31 18.31 0 0 1 1.697.533 12.055 12.055 0 0 1 .587.236l.006.003.001.001.168-.364Zm-25.327 6.986c-4.17 5.31-6.229 14.051-7.254 21.393a112.286 112.286 0 0 0-1.012 12.362c-.008.342-.012.608-.014.789l-.002.206v.072h.8v-.067l.002-.202a98.719 98.719 0 0 1 .126-3.644c.127-2.418.383-5.75.893-9.405 1.024-7.336 3.064-15.883 7.09-21.01l-.629-.494Zm-78.896 9.38c0 1.234-.962 2.21-2.121 2.21v.8c1.626 0 2.921-1.36 2.921-3.01h-.8Zm-2.121 2.21c-1.16 0-2.122-.976-2.122-2.21h-.8c0 1.65 1.295 3.01 2.922 3.01v-.8Zm-2.122-2.21c0-1.233.962-2.209 2.122-2.209v-.8c-1.627 0-2.922 1.36-2.922 3.009h.8Zm2.122-2.209c1.159 0 2.121.976 2.121 2.209h.8c0-1.649-1.295-3.009-2.921-3.009v.8Zm32.383 2.209c0 1.234-.963 2.21-2.122 2.21v.8c1.626 0 2.922-1.36 2.922-3.01h-.8Zm-2.122 2.21c-1.159 0-2.122-.976-2.122-2.21h-.8c0 1.65 1.295 3.01 2.922 3.01v-.8Zm-2.122-2.21c0-1.233.963-2.209 2.122-2.209v-.8c-1.627 0-2.922 1.36-2.922 3.009h.8Zm2.122-2.209c1.159 0 2.122.976 2.122 2.209h.8c0-1.649-1.296-3.009-2.922-3.009v.8ZM507.09 98.292c0 1.053-.822 1.884-1.807 1.884v.8c1.453 0 2.607-1.215 2.607-2.684h-.8Zm-1.807 1.884c-.985 0-1.806-.83-1.806-1.884h-.8c0 1.47 1.154 2.684 2.606 2.684v-.8Zm-1.806-1.884c0-1.053.821-1.883 1.806-1.883v-.8c-1.452 0-2.606 1.214-2.606 2.683h.8Zm1.806-1.883c.985 0 1.807.83 1.807 1.883h.8c0-1.469-1.154-2.683-2.607-2.683v.8Zm31.755 1.883c0 1.053-.822 1.884-1.807 1.884v.8c1.452 0 2.607-1.215 2.607-2.684h-.8Zm-1.807 1.884c-.985 0-1.807-.83-1.807-1.884h-.8c0 1.47 1.155 2.684 2.607 2.684v-.8Zm-1.807-1.884c0-1.053.822-1.883 1.807-1.883v-.8c-1.452 0-2.607 1.214-2.607 2.683h.8Zm1.807-1.883c.985 0 1.807.83 1.807 1.883h.8c0-1.469-1.155-2.683-2.607-2.683v.8Zm24.616 30.914c0 1.649 1.296 3.009 2.922 3.009v-.8c-1.159 0-2.122-.976-2.122-2.209h-.8Zm2.922 3.009c1.627 0 2.922-1.36 2.922-3.009h-.8c0 1.233-.963 2.209-2.122 2.209v.8Zm2.922-3.009c0-1.65-1.295-3.01-2.922-3.01v.8c1.159 0 2.122.976 2.122 2.21h.8Zm-2.922-3.01c-1.626 0-2.922 1.36-2.922 3.01h.8c0-1.234.963-2.21 2.122-2.21v-.8Zm-85.941 3.01c0 1.233-.963 2.209-2.122 2.209v.8c1.627 0 2.922-1.36 2.922-3.009h-.8Zm-2.122-2.21c1.159 0 2.122.976 2.122 2.21h.8c0-1.65-1.295-3.01-2.922-3.01v.8Zm84.51-26.821c0 1.469 1.155 2.683 2.607 2.683v-.8c-.985 0-1.807-.83-1.807-1.883h-.8Zm2.607 2.683c1.453 0 2.607-1.214 2.607-2.683h-.8c0 1.053-.822 1.883-1.807 1.883v.8Zm2.607-2.683c0-1.47-1.154-2.683-2.607-2.683v.8c.985 0 1.807.83 1.807 1.883h.8Zm-2.607-2.683c-1.452 0-2.607 1.214-2.607 2.683h.8c0-1.053.822-1.883 1.807-1.883v-.8Zm-85.31 2.683c0 1.053-.822 1.883-1.807 1.883v.8c1.453 0 2.607-1.214 2.607-2.683h-.8Zm-1.807-1.883c.985 0 1.807.83 1.807 1.883h.8c0-1.47-1.154-2.683-2.607-2.683v.8Z"/>
  <path stroke="#404040" stroke-dasharray="1.06 1.06" stroke-linecap="round" stroke-miterlimit="10" stroke-width=".5" d="M385.126 124.067c.111-2.832.124-2.748.26-6.207.209-7.671.284-12.074.283-16.918m-.816 29.78c-.705 17.966-.812 21.397-.812 21.397m1.106-69.486s.494 1.109.522 12.985m3.007 34.605c-1.037 19.964-1.201 22.071-1.201 22.071m1.365-27.839c.082-2.427.175-3.525.257-5.939.291-8.428.405-12.269.42-17.463m-.42-18.743s.427 2.372.42 13.308m83.192 34.494c-.546 19.797-.546 22.182-.546 22.182m0-70.54s-.007 2.817 0 13.753m.546 5.435c.024 7.904-.247 15.824 0 23.18m1.999 67.133s-90.159-.652-97.724-.652c-7.566 0-19.545.978-23.013-1.957-2.837-2.284-4.098-9.46-5.99-18.593-1.891-9.133-6.935-43.056-6.935-43.056s0-11.416-12.925-10.438c-10.403.653-10.718 8.481-11.033 9.46-.315.978-1.892 17.613 1.261 34.575 3.152 16.961 7.881 30.009 13.24 40.773 6.62 13.699 15.762 19.245 15.762 19.245m124.832.652v-32.945m2.525-2.609s-44.449-.652-61.472-.652c-17.023 0-59.265-.327-59.265-.327m120.737-23.158c-71.244-.653-71.244-.653-90.474-.653h-33.731"/>
  <path fill="#404040" d="m359.914 268.271.72.695.225-.234.046-.321-.991-.14Zm-5.989 0h-1v.229l.1.206.9-.435Zm17.768-18.63-.999-.033-.001.017v.016h1Zm5.044 0 .9.435.065-.134.023-.147-.988-.154Zm97.466-27.377h1v-2h-1v2Zm-119.331-1v-1a.844.844 0 0 0-.087.004l.087.996Zm-11.936-2.283-.587.809.033.023.554-.832Zm-19.23-28.378.958-.288-.019-.058-.939.346Zm-9.142-40.447.997-.079a.596.596 0 0 0-.004-.042l-.993.121Zm3.153-32.944-.735-.679-.017.019.752.66Zm20.49-6.198-.07.998a1 1 0 0 0 1.012-.662l-.942-.336Zm8.512-12.721.719.695.017-.018-.736-.677Zm79.756-17.614-.015 1h.005l.01-1Zm48.222 1.454 1 .01.019-2-1-.01-.019 2Zm-.503 107.512 1 .006.012-2-1-.005-.012 1.999Zm-113.923-1.652-.061.998.028.002h.027l.006-1Zm-9.142-29.356.81.587.03-.042.025-.044-.865-.501Zm3.783-2.284.224.975.003-.001-.227-.974Zm12.61-2.935-.224-.975-.003.001.227.974Zm106.714.674h1v-2h-1v2Zm.461 6.197 1 .01.018-2-1-.01-.018 2Zm-90.466-1.978-.019 1h.002l.017-1Zm-32.826-.673-1 .041.083 1.999.999-.042-.082-1.998Zm14.139 63.486-6.62 47.008 1.981.279 6.62-47.008-1.981-.279Zm-5.63 47.147c-.719-.695-.718-.695-.717-.696l.001-.002.003-.002.005-.005.01-.01a.25.25 0 0 1 .017-.016l.023-.02c.01-.008.008-.006-.007.004-.03.018-.12.069-.291.128-.345.119-1.018.272-2.196.272v2c1.344 0 2.247-.174 2.848-.381a3.46 3.46 0 0 0 .694-.32 2.045 2.045 0 0 0 .277-.206l.029-.027.012-.012.006-.006.003-.003.001-.001c.001-.001.002-.002-.718-.697Zm-3.152-.347c-1.187 0-1.753-.156-1.982-.251-.11-.045-.129-.071-.103-.048a.539.539 0 0 1 .105.131l.022.038a.212.212 0 0 0 .011.021.047.047 0 0 0 .005.01l.003.006.001.002c.001.002.001.003-.899.438s-.9.437-.899.438l.001.003.003.005.006.012.012.023.028.049a1.49 1.49 0 0 0 .274.32c.164.146.381.283.665.4.559.232 1.412.403 2.747.403v-2Zm-1.837.347v-47.007h-2v47.007h2Zm16.715-47.04-.946 28.377 1.999.066.945-28.377-1.998-.066Zm.053 28.41c-1 0-1 .002-1 .004v.012l.001.015.001.033.007.071a1.3 1.3 0 0 0 .19.509c.153.237.378.426.657.571.528.273 1.351.438 2.666.438v-2c-1.207 0-1.645-.162-1.747-.215-.036-.019.031.008.105.122a.721.721 0 0 1 .089.202.913.913 0 0 1 .024.118l.005.06.002.03v.026c0 .002 0 .004-1 .004Zm2.522 1.653c1.192 0 1.978-.175 2.506-.418.268-.123.471-.265.623-.41a1.538 1.538 0 0 0 .248-.306l.025-.043.011-.021a.047.047 0 0 1 .005-.01l.002-.005.001-.002c.001-.002.001-.003-.899-.438s-.9-.436-.899-.437l.001-.003a.008.008 0 0 0 .002-.004l.005-.01.009-.018.019-.032a.525.525 0 0 1 .089-.117c.023-.023.01-.001-.077.039-.181.083-.656.235-1.671.235v2Zm3.51-1.499 4.414-28.377-1.977-.308-4.413 28.377 1.976.308Zm96.478-29.531H354.872v2h119.331v-2Zm-119.331 1-.086-.996h-.003l-.012.001-.057.004-.231.015a29.137 29.137 0 0 1-3.841-.061c-2.383-.2-5.16-.754-7.152-2.079l-1.108 1.665c2.421 1.611 5.613 2.199 8.093 2.407a31.166 31.166 0 0 0 4.121.065l.262-.017.071-.006.02-.001.006-.001h.003l-.086-.996Zm-11.349-3.093c-3.073-2.226-13.275-9.239-18.859-27.856l-1.916.575c5.765 19.221 16.369 26.559 19.601 28.9l1.174-1.619Zm-19.817-27.568.939-.346-.001-.003-.004-.01-.016-.043a137.372 137.372 0 0 1-1.174-3.432c-.73-2.224-1.72-5.399-2.759-9.192-2.08-7.595-4.349-17.639-5.13-27.5l-1.994.158c.795 10.036 3.098 20.216 5.195 27.87a197.591 197.591 0 0 0 2.787 9.288 145.213 145.213 0 0 0 1.131 3.312l.065.18.017.046.004.013.001.003.001.001.938-.345Zm-9.142-40.447.993-.121v-.001l-.001-.003-.001-.013a.683.683 0 0 1-.006-.053l-.025-.213a123.997 123.997 0 0 1-.357-3.812 125.94 125.94 0 0 1-.391-9.565c0-3.642.196-7.472.774-10.818.584-3.386 1.533-6.109 2.918-7.685l-1.503-1.32c-1.767 2.011-2.788 5.2-3.386 8.664-.605 3.504-.803 7.461-.803 11.159 0 3.703.199 7.175.397 9.72.099 1.273.199 2.316.273 3.042.038.363.069.647.091.84l.025.222.007.058.002.015v.004l.001.001.992-.121Zm3.888-32.266c3.075-3.334 7.916-4.838 12.143-5.48a40.16 40.16 0 0 1 5.356-.437 33.448 33.448 0 0 1 2.047.03l.108.007.025.001.006.001.07-.998.07-.997-.001-.001h-.013a.616.616 0 0 0-.034-.003l-.127-.007a35.968 35.968 0 0 0-2.18-.033 42.182 42.182 0 0 0-5.628.46c-4.363.663-9.768 2.258-13.312 6.1l1.47 1.357Zm19.755-6.876.942.336s0 .001 0 0l.001-.001.003-.009.016-.045.074-.19c.068-.17.174-.425.321-.753.293-.657.752-1.607 1.405-2.759 1.306-2.306 3.385-5.415 6.469-8.605L346 97.598c-3.222 3.333-5.398 6.585-6.771 9.009a34.777 34.777 0 0 0-1.491 2.929c-.159.354-.275.634-.352.829l-.088.225-.023.062a.788.788 0 0 1-.009.023v.002l-.001.001.942.336Zm9.248-12.044c3.159-3.433 6.053-6.657 10.973-9.34 4.926-2.687 11.955-4.865 23.381-5.999l-.197-1.99c-11.586 1.15-18.901 3.375-24.142 6.233-5.246 2.862-8.342 6.325-11.487 9.742l1.472 1.354Zm34.354-15.339c11.474-1.138 22.639-1.626 30.938-1.83 4.149-.102 7.579-.132 9.972-.137a306.382 306.382 0 0 1 3.495.012l.185.002h.06l.001.001.015-1 .014-1h-.064l-.189-.003-.734-.007c-.642-.004-1.585-.008-2.788-.005-2.405.005-5.85.036-10.016.138-8.33.204-19.547.694-31.086 1.84l.197 1.99Zm44.656-1.952 48.232.454.019-2-48.232-.454-.019 2Zm47.741 105.967-113.929-.653-.012 2 113.929.652.012-1.999Zm-113.935.347.061-.998h.002-.006a.489.489 0 0 0-.033-.003l-.147-.014a10.498 10.498 0 0 1-2.405-.575c-1.418-.526-2.843-1.443-3.48-3.024l-1.855.747c.94 2.334 2.982 3.537 4.638 4.152a12.51 12.51 0 0 0 3.08.707l.058.004.017.002h.009l.061-.998Zm-6.008-4.614c-1.519-3.773-2.454-9.198-2.766-14.365l-1.997.121c.319 5.271 1.275 10.936 2.908 14.991l1.855-.747Zm-2.766-14.365c-.157-2.603-.233-4.843-.157-6.582.038-.87.114-1.588.227-2.149.118-.58.259-.905.372-1.059l-1.62-1.174c-.36.497-.573 1.151-.712 1.836-.142.702-.224 1.534-.265 2.458-.081 1.849 0 4.175.158 6.791l1.997-.121Zm.497-9.876c.307-.529 1.001-.992 1.787-1.34a8.969 8.969 0 0 1 1.263-.447l.075-.019.016-.004h.003-.002l-.224-.975-.225-.974h-.001l-.004.001a.025.025 0 0 1-.01.002l-.031.008-.109.028a10.912 10.912 0 0 0-1.562.551c-.87.386-2.067 1.064-2.706 2.166l1.73 1.003Zm3.145-1.811 12.609-2.935-.453-1.948-12.61 2.935.454 1.948Zm12.383-3.909.223.974h.001l.004-.001.02-.004.087-.019c.078-.016.196-.041.35-.07a30.906 30.906 0 0 1 5.619-.533v-2a32.974 32.974 0 0 0-6.383.646l-.104.023a.384.384 0 0 1-.029.006l-.008.002-.003.001h-.001l.224.975Zm6.304.347c1.727 0 8.494.082 15.593.163 7.09.082 14.506.164 17.508.164v-2c-2.988 0-10.388-.082-17.485-.163-7.086-.082-13.874-.164-15.616-.164v2Zm33.101.327h67.308l.001-1-.001-1h-67.308v2Zm67.779 5.197.009-1h-.052l-.153-.001-.603-.006-2.303-.021-8.365-.079c-7.004-.066-16.54-.158-26.667-.259-20.256-.204-42.871-.449-52.324-.612l-.034 2c9.461.163 32.084.408 52.337.611 10.128.102 19.664.194 26.669.26l8.365.079 2.304.021.602.006.154.001h.051l.01-1Zm-90.456-1.978c-8.529-.163-16.739-.082-22.815.041a611.838 611.838 0 0 0-9.316.258l-.531.021-.137.005-.034.001-.009.001h-.003l.041.999.041.999h.011l.034-.002.134-.005.527-.02a628.555 628.555 0 0 1 9.282-.258c6.06-.122 14.243-.203 22.737-.04l.038-2Z"/>
  <path fill="#404040" d="M316.815 120.654a.4.4 0 0 1-.714-.361l.714.361Zm27.384 9.279-.393.076-.002-.013.395-.063Zm7.646 45.277a.4.4 0 0 1-.79.124l.79-.124Zm-12.617-63.89a.4.4 0 1 1-.336-.725l.336.725Zm24.83 6.87.312-.251.003.004-.315.247Zm8.596 34.575a.4.4 0 1 1-.8 0h.8Zm-56.196-32.292-.357-.181.001-.001.001-.001.003-.006.009-.018.035-.065c.031-.054.076-.133.137-.231.122-.197.306-.473.559-.801a12.655 12.655 0 0 1 2.406-2.359c2.24-1.685 5.801-3.266 11.102-2.933l-.05.798c-5.102-.32-8.477 1.198-10.571 2.775a11.824 11.824 0 0 0-2.254 2.208 8.405 8.405 0 0 0-.63.934.827.827 0 0 0-.027.049l-.006.012-.001.001v.001-.001l-.357-.181Zm13.896-6.596c5.223.327 8.369 1.313 10.412 3.815 1.012 1.24 1.731 2.826 2.315 4.82.584 1.993 1.04 4.42 1.513 7.357l-.79.127c-.472-2.934-.922-5.318-1.491-7.259-.568-1.941-1.249-3.414-2.167-4.539-1.819-2.227-4.663-3.198-9.842-3.523l.05-.798Zm14.238 15.98c.317 1.639 2.131 12.985 3.864 23.906a20254.42 20254.42 0 0 1 3.103 19.632l.211 1.341.056.353.014.09.004.023.001.006v.001l-.395.063-.395.062-.001-.002-.001-.005-.003-.023-.014-.091-.056-.352-.211-1.341-.759-4.811c-.63-3.996-1.477-9.357-2.344-14.821-1.735-10.933-3.546-22.257-3.859-23.879l.785-.152Zm-5.532-18.899a10.472 10.472 0 0 1-.167-.364h.001l.002-.001.01-.005.033-.015.126-.054c.11-.046.27-.11.477-.188a19.268 19.268 0 0 1 1.77-.557 22.423 22.423 0 0 1 6.117-.738c4.975.098 11.341 1.95 16.941 8.903l-.624.502c-5.433-6.747-11.566-8.511-16.332-8.605a21.572 21.572 0 0 0-5.897.712 18.37 18.37 0 0 0-1.696.533 11.673 11.673 0 0 0-.592.239l-.001.001-.168-.363Zm25.313 6.985c4.17 5.31 6.228 14.051 7.253 21.393.514 3.684.771 7.039.9 9.474a100.001 100.001 0 0 1 .126 3.677l.002.206v.072h-.8v-.067l-.002-.202a98.048 98.048 0 0 0-.125-3.644 111.87 111.87 0 0 0-.893-9.405c-1.024-7.336-3.064-15.883-7.091-21.01l.63-.494Zm78.895 9.381c0 1.233.963 2.209 2.122 2.209v.8c-1.627 0-2.922-1.36-2.922-3.009h.8Zm2.122 2.209c1.159 0 2.122-.976 2.122-2.209h.8c0 1.649-1.296 3.009-2.922 3.009v-.8Zm2.122-2.209c0-1.234-.963-2.21-2.122-2.21v-.8c1.626 0 2.922 1.36 2.922 3.01h-.8Zm-2.122-2.21c-1.159 0-2.122.976-2.122 2.21h-.8c0-1.65 1.295-3.01 2.922-3.01v.8Zm-32.383 2.21c0 1.233.962 2.209 2.122 2.209v.8c-1.627 0-2.922-1.36-2.922-3.009h.8Zm2.122 2.209c1.159 0 2.122-.976 2.122-2.209h.8c0 1.649-1.296 3.009-2.922 3.009v-.8Zm2.122-2.209c0-1.234-.963-2.21-2.122-2.21v-.8c1.626 0 2.922 1.36 2.922 3.01h-.8Zm-2.122-2.21c-1.16 0-2.122.976-2.122 2.21h-.8c0-1.65 1.295-3.01 2.922-3.01v.8Zm27.193-26.822c0 1.053.822 1.884 1.807 1.884v.8c-1.452 0-2.607-1.215-2.607-2.684h.8Zm1.807 1.884c.985 0 1.807-.83 1.807-1.884h.8c0 1.47-1.155 2.684-2.607 2.684v-.8Zm1.807-1.884c0-1.053-.822-1.883-1.807-1.883v-.8c1.452 0 2.607 1.214 2.607 2.683h-.8Zm-1.807-1.883c-.985 0-1.807.83-1.807 1.883h-.8c0-1.469 1.155-2.683 2.607-2.683v.8Zm-31.754 1.883c0 1.053.821 1.884 1.806 1.884v.8c-1.452 0-2.606-1.215-2.606-2.684h.8Zm1.806 1.884c.985 0 1.807-.83 1.807-1.884h.8c0 1.47-1.154 2.684-2.607 2.684v-.8Zm1.807-1.884c0-1.053-.822-1.883-1.807-1.883v-.8c1.453 0 2.607 1.214 2.607 2.683h-.8Zm-1.807-1.883c-.985 0-1.806.83-1.806 1.883h-.8c0-1.469 1.154-2.683 2.606-2.683v.8Zm-24.616 30.914c0 1.649-1.295 3.009-2.922 3.009v-.8c1.159 0 2.122-.976 2.122-2.209h.8Zm-2.922 3.009c-1.626 0-2.922-1.36-2.922-3.009h.8c0 1.233.963 2.209 2.122 2.209v.8Zm-2.922-3.009c0-1.649 1.296-3.01 2.922-3.01v.8c-1.159 0-2.122.976-2.122 2.21h-.8Zm2.922-3.01c1.627 0 2.922 1.361 2.922 3.01h-.8c0-1.234-.963-2.21-2.122-2.21v-.8Zm85.941 3.01c0 1.233.963 2.209 2.122 2.209v.8c-1.626 0-2.922-1.36-2.922-3.009h.8Zm2.122-2.21c-1.159 0-2.122.976-2.122 2.21h-.8c0-1.649 1.296-3.01 2.922-3.01v.8Zm-84.51-26.821c0 1.469-1.154 2.683-2.607 2.683v-.8c.985 0 1.807-.83 1.807-1.883h.8Zm-2.607 2.683c-1.452 0-2.606-1.214-2.606-2.683h.8c0 1.053.821 1.883 1.806 1.883v.8Zm-2.606-2.683c0-1.469 1.154-2.683 2.606-2.683v.8c-.985 0-1.806.83-1.806 1.883h-.8Zm2.606-2.683c1.453 0 2.607 1.214 2.607 2.683h-.8c0-1.053-.822-1.883-1.807-1.883v-.8Zm85.311 2.683c0 1.053.821 1.883 1.806 1.883v.8c-1.452 0-2.606-1.214-2.606-2.683h.8Zm1.806-1.883c-.985 0-1.806.83-1.806 1.883h-.8c0-1.469 1.154-2.683 2.606-2.683v.8Z"/>
  <path stroke="#404040" stroke-dasharray="1 1" stroke-width=".5" d="M154.582 195.884c.768 1.972 2.281 8.444 2.193 18.561-.088 10.117-.037 15.366 0 16.725m7.404-54.255c-8.058.255-28.098.612-36.78.612h-24.285m59.475 10.606c-5.81.663-26.782.867-35.464.867h-23.557m98.816-44.414c1.041 7.904-7.58 33.372-16.637 48.697-14.526 24.578-21.952 25.598-26.721 27.281m35.464-78.171c-1.835 6.629-13.867 28.505-13.867 28.505s-13.539 24.578-22.994 28.555"/>
  <path stroke="#404040" stroke-width="2" d="M146.634 231.541h9.978c.263-.007.525-.017.785-.031m-10.763.031 5.922 35.885c.365.442 1.655 1.305 3.892 1.224 2.236-.082 3.051-.85 3.179-1.224l-2.23-35.916m-10.763.031-.053-.32m.053.32H59.909m97.488-.031c20.945-1.122 31.823-25.726 37.31-41.847 3.764-10.674 11.018-33.655 9.921-40.182-1.37-8.159-14.087-7.598-15.293-7.7-.964-.081-1.388-.476-1.479-.663-.183-8.515-.779-27.26-1.7-34.113-1.151-8.567-2.302-19.683-7.071-22.437-4.768-2.754-6.851-4.13-16.773-3.875-9.921.255-23.734 2.702-34.148 3.11a633.92 633.92 0 0 1-49.785 0c-10.415-.408-24.228-2.855-34.149-3.11-9.921-.255-12.004 1.121-16.773 3.875s-5.92 13.87-7.07 22.437c-.922 6.853-1.517 25.598-1.7 34.113-.091.187-.515.582-1.48.663-1.206.102-13.923-.459-15.293 7.7-1.096 6.527 6.157 29.508 9.921 40.182 5.487 16.121 16.366 40.725 37.31 41.847m108.252 0-.018-.289m-15.567.357 3.947 18.663c.292.476 1.458 1.367 3.782 1.122m-89.632-19.822H49.93a28.945 28.945 0 0 1-.786-.031m10.764.031-5.922 35.885c-.366.442-1.656 1.305-3.892 1.224-2.236-.082-3.051-.85-3.18-1.224l2.23-35.916m10.764.031.052-.32m-10.816.289.018-.289m15.567.357-3.947 18.664c-.292.475-1.458 1.366-3.782 1.121m75.164-53.185c7.454.068 21.596.459 26.639-4.538 5.043-4.997 6.249-11.065 5.646-15.705-.603-4.641-3.453-9.128-15.731-9.893-9.823-.612-21.634-.697-26.311-.663H84.134c-4.677-.034-16.487.051-26.31.663-12.278.765-15.129 5.252-15.732 9.893-.603 4.64.603 10.708 5.646 15.705s19.185 4.607 26.64 4.539l57.787-.001Z"/>
  <path stroke="#404040" stroke-width=".8" d="M187.125 110.111a5.782 5.782 0 0 0-.836-.761m0 0c-3.09-2.366-11.532-5.609-21.092-4.25-16.058 2.284-24.821 13.041-27.008 13.531m48.1-9.281c.122 3.499.114 7.285-.15 10.879-.822 11.167-5.536 16.216-6.304 18.306-.614 1.673 7.664 3.285 10.789 3.727m-4.335-32.912c-.18-5.198-.645-9.761-.972-12.118m-47.128 21.399a.616.616 0 0 1-.142.017c-1.924 0-12.757-6.881-34.466-6.575-21.709-.306-33.202 6.575-35.126 6.575a.62.62 0 0 1-.142-.017m69.876 0c.642-.95.375-4.972.92-12.017.548-7.088 1.151-7.139 2.138-15.042.789-6.323.328-7.972 0-8.006m-3.058 35.065a.25.25 0 0 1-.012.017c-.658.918-3.782 3.162-4.604 13.156-.815 9.904-.069 19.357-.589 19.826m49.756-18.602c-7.071-.918-13.683.607-21.98 3.672-16.059 5.932-21.349 14.583-27.776 14.93m0 0a7.523 7.523 0 0 1-.398.011c-4.714 0-11.459-6.884-29.273-6.884-17.815 0-24.683 6.884-29.397 6.884a7.54 7.54 0 0 1-.399-.011m59.467 0a.045.045 0 0 1-.014.01c-.548.306-1.042 2.805-1.425 8.414-.199 2.907 0 6.935 0 7.853m48.181-29.473c-3.344-.595-10.869.933-16.39 10.81-5.7 10.198-7.564 17.524-8.167 19.989m1.589 27.178c.768 1.972 2.281 8.445 2.193 18.562-.088 10.116-.037 15.365 0 16.725m5.317-57.184c-8.533 0-27.768.357-36.451.357H78.685c-8.683 0-27.919-.357-36.451-.357m118.39 16.661c-5.811.663-24.07.596-32.752.596H78.63c-8.683 0-28.668-.255-34.478-.918m159.472-44.516c1.042 7.904-8.099 35.004-17.156 50.329-14.526 24.579-22.693 25.752-27.462 27.434m33.518-81.485c-1.836 6.629-12.415 25.751-12.415 25.751s-13.649 25.751-22.474 30.085m-138.259-88.34c.207-.237.487-.493.836-.761m0 0c3.09-2.366 11.533-5.609 21.093-4.25 16.058 2.284 24.821 13.041 27.008 13.531m-48.1-9.281c-.122 3.499-.115 7.285.15 10.879.822 11.168 5.536 16.216 6.304 18.306.613 1.673-7.565 3.638-10.689 4.08m4.234-33.265c.18-5.198.646-9.761.973-12.118m47.128 21.399c-.643-.95-.375-4.972-.92-12.017-.548-7.088-1.151-7.139-2.138-15.042-.79-6.323-.329-7.972 0-8.006m3.058 35.065a.25.25 0 0 0 .012.017c.657.918 3.782 3.162 4.604 13.156.815 9.904.069 19.357.588 19.826m-49.755-18.602c7.07-.918 13.683.607 21.98 3.672 16.058 5.932 21.349 14.583 27.775 14.93m0 0c.005.004.01.008.015.01.548.306 1.041 2.805 1.425 8.414.199 2.907 0 6.935 0 7.853m-48.18-29.473c3.343-.595 10.868.933 16.389 10.81 5.7 10.198 7.564 17.524 8.167 19.989m-1.59 27.179c-.767 1.971-2.28 8.444-2.192 18.561.087 10.117.036 15.365 0 16.725M2.877 146.337c-1.041 7.904 8.1 35.004 17.157 50.33 14.526 24.578 22.693 25.751 27.462 27.433m-33.518-81.485c1.836 6.629 12.415 25.751 12.415 25.751s13.648 25.751 22.474 30.085"/>
  <path stroke="#404040" stroke-dasharray="1 1" stroke-width=".5" d="M51.96 195.884c-.768 1.972-2.281 8.444-2.193 18.561.087 10.117.036 15.366 0 16.725m-7.404-54.255c8.058.255 28.098.612 36.78.612h24.285m-59.475 10.606c5.81.663 26.782.867 35.464.867h24.285M4.158 144.586c-1.041 7.904 7.58 33.372 16.637 48.697 14.525 24.578 21.952 25.598 26.72 27.281m-35.464-78.171c1.836 6.629 13.868 28.505 13.868 28.505s13.539 24.578 22.994 28.555m179.14-183.601c6.458-5.345 18.211-1.803 26.252 7.91 8.041 9.715 9.325 21.923 2.867 27.268"/>
  <path stroke="#404040" stroke-width=".8" d="M243.492 21.217a8.634 8.634 0 0 0-6.713 8.418 8.631 8.631 0 0 0 8.631 8.63c3.389 0 6.974-1.815 8.387-4.657m39.106 222.184c0 2.392-13.224 5.427-29.544 5.427-16.319 0-29.543-3.035-29.543-5.427"/>
  <path stroke="#404040" stroke-width="2" d="M224.331 17.657c6.068-4.905 27.333-16.137 39.321-4.149s-2.53 36.438-11.029 42.99m3.836-47.306 6.51-3.991c2.708-1.868 7.181-.08 9.992 3.993 2.811 4.073 2.894 8.89.186 10.758l-4.699 3.626m-.96 228.772c14.13.329 25.415 2.2 25.415 4.361v6.753c0 2.392-13.224 5.582-29.544 5.582-16.319 0-29.544-3.19-29.544-5.582v-6.753c0-2.191 11.585-4.069 26.001-4.361m3.763-210.263v69.131m-13.497-83.861c-8.443-10.2-20.785-13.92-27.565-8.307-6.781 5.613-5.433 18.432 3.011 28.632 8.443 10.2 20.785 13.92 27.565 8.307 6.781-5.613 5.433-18.432-3.011-28.632Zm16.927 227.867V111.37h-6.714v143.854c.498.321 1.567.962 3.357.962 1.79 0 3.108-.641 3.357-.962Z"/>
  <path stroke="#404040" stroke-width=".5" d="M783.208 86.74h81.939v38.794h-81.939V86.74Zm-90.174 96.335h81.939v38.793h-81.939v-38.793Z"/>
  <path stroke="#404040" stroke-dasharray="1 1" stroke-width=".5" d="M714.064 62.696c0 1.44 9.13 2.609 16.304 2.609 7.174 0 16.305-1.168 16.305-2.609"/>
  <path stroke="#404040" stroke-linecap="round" stroke-width=".8" d="M725.803 54.87c-.36-5.536-2.001-18.39-3.44-25.525-1.44-7.135-3.959-10.559-5.039-12.301m17.61 37.826c.354-5.573 1.06-14.744 4.565-22.174"/>
  <path fill="#404040" d="M869.772 81.887h1v-1h-1v1Zm-59.624 96.894v1h1v-1h-1Zm57.379 90.088-.946.324.232.676h.714v-1Zm5.016 0v1h1.226l-.246-1.2-.98.2Zm-2.771-90.088h1-1Zm-90.109 0v-1h-1v1h1Zm90.109 47.68v1h1v-1h-1ZM778.46 81.887h1v-1h-1v1Zm-89.56 0v-1h-1v1h1Zm12.798 156.14h-1v1h1v-1Zm76.762-107.965v1h1v-1h-1Zm-89.56 48.719h-1 1Zm0 47.68h-1v1h1v-1Zm2.136 42.408v1a.998.998 0 0 0 .946-.676l-.946-.324Zm-5.016 0-.98-.2a1.002 1.002 0 0 0 .98 1.2v-1Zm21.522-14.432v1a1 1 0 0 0 .956-.708l-.956-.292Zm-4.566 0-.987-.158a1.001 1.001 0 0 0 .987 1.158v-1Zm147.459-.653-.956.292a.998.998 0 0 0 .956.708v-1Zm4.565 0v1a1 1 0 0 0 .988-1.158l-.988.158ZM746.661 55.522h1a1 1 0 0 0-1-1v1Zm-32.406 0v-1a1 1 0 0 0-1 1h1Zm32.84-46.305.902-.43-.601-1.26-1 .975.699.715Zm-11.51 37.827-.871.49.455.809.84-.393-.424-.906Zm12.696-13.917-.943-.334.943.334ZM709.598 4l.306-.952-1.639-.527.355 1.685.978-.206Zm15.552 44.348-.777.629 1.052 1.301.648-1.543-.923-.387ZM809.347 95.9h29.876v-2h-29.876v2Zm-89.613 95.816h28.49v-2h-28.49v2Zm59.358-108.829h90.68v-2h-90.68v2Zm30.056 47.192v48.702h2v-48.702h-2Zm1 47.702h-31.056v2h31.056v-2Zm45.826 48.68v11.566h2v-11.566h-2Zm1 10.566h-77.882v2h77.882v-2Zm11.499 31.519-10.553-30.843-1.892.648 10.553 30.842 1.892-.647Zm-5.591-41.884 8.682 42.408 1.959-.401-8.682-42.408-1.959.401Zm9.661 41.207h-5.016v2h5.016v-2Zm-2.771-138.807h-90.68v2h90.68v-2Zm0 48.719h-90.109v2h90.109v-2Zm-90.109 2h30.485v-2h-30.485v2Zm90.109 45.68h-90.109v2h90.109v-2Zm-90.109 0h-.571v2h.571v-2Zm-1-46.68v47.68h2v-47.68h-2Zm90.109-96.894v48.175h2V81.887h-2Zm0 96.894v47.68h2v-47.68h-2ZM778.46 80.887H688.9v2h89.56v-2Zm-30.936 49.192v48.702h2v-48.702h-2Zm1 49.702h31.056v-2h-31.056v2Zm-47.826 46.68v11.566h2v-11.566h-2Zm1 12.566h77.882v-2h-77.882v2ZM688.9 131.062h89.56v-2H688.9v2Zm-1-49.175v48.175h2V81.887h-2Zm0 96.894v47.68h2v-47.68h-2Zm91.56-48.719V81.887h-2v48.175h2Zm-87.478 139.131 10.553-30.842-1.892-.648-10.553 30.843 1.892.647Zm1.74-42.932-8.682 42.408 1.96.401 8.682-42.408-1.96-.401Zm-7.702 43.608h5.016v-2h-5.016v2Zm22.478-15.14 4.973-16.305-1.913-.583-4.973 16.304 1.913.584Zm-3.9-16.755-2.609 16.305 1.975.316 2.609-16.305-1.975-.316Zm2.944 15.463h-4.566v2h4.566v-2Zm143.85.056-4.973-16.305-1.913.584 4.973 16.304 1.913-.583Zm.012-15.855 2.609 16.304 1.975-.316-2.609-16.304-1.975.316Zm-.969 17.146H855v-2h-4.565v2ZM713.255 55.522c0 6.749-.328 11.932.089 16.07.428 4.245 1.645 7.579 4.791 10.725l1.414-1.415c-2.746-2.746-3.822-5.609-4.215-9.51-.404-4.008-.079-8.922-.079-15.87h-2Zm29.526 26.795c3.145-3.146 4.363-6.48 4.791-10.725.417-4.138.089-9.321.089-16.07h-2c0 6.947.325 11.861-.079 15.87-.393 3.901-1.469 6.764-4.216 9.51l1.415 1.415Zm3.615-73.815c-10.152 9.903-14.396 17.437-15.394 23.69-1.005 6.297 1.318 11.09 3.712 15.342l1.743-.98c-2.356-4.186-4.371-8.462-3.48-14.047.898-5.627 4.783-12.787 14.816-22.574l-1.397-1.431Zm-.204 1.146c1.776 3.719 4.512 13.631 1.146 23.145l1.886.667c3.6-10.175.691-20.657-1.227-24.673l-1.805.861Zm1.146 23.145c-3.344 9.453-9.733 12.203-12.176 13.345l.847 1.812c2.57-1.202 9.593-4.252 13.215-14.49l-1.886-.667ZM708.62 4.206c.517 2.454 1.258 9.177-.005 16.028l1.967.363c1.319-7.157.554-14.15-.005-16.803l-1.957.412Zm-.005 16.028c-.376 2.04.206 4.487 1.223 6.988 1.031 2.534 2.572 5.271 4.293 7.955 3.444 5.37 7.688 10.641 10.242 13.8l1.555-1.258c-2.558-3.164-6.736-8.357-10.113-13.622-1.689-2.633-3.159-5.255-4.124-7.628-.979-2.405-1.379-4.41-1.109-5.872l-1.967-.363Zm17.458 28.501c.802-1.911 1.464-5.433 1.931-9.768.472-4.375.755-9.692.755-15.268h-2c0 5.513-.281 10.758-.743 15.053-.468 4.336-1.11 7.594-1.788 9.21l1.845.773Zm2.686-25.037c0-5.94-3.248-10.63-7.153-14.032-3.905-3.4-8.572-5.612-11.702-6.618l-.612 1.904c2.924.94 7.337 3.032 11 6.222 3.661 3.189 6.467 7.375 6.467 12.524h2Zm140.013 106.364v48.719h2v-48.719h-2ZM688.9 179.781h59.624v-2H688.9v2Zm0 47.68h90.68v-2H688.9v2Zm-1-97.399v48.719h2v-48.719h-2Zm58.761-75.54h-32.406v2h32.406v-2Z"/>
</svg>